<?xml version="1.0" encoding="UTF-8"?>
<!DOCTYPE svg PUBLIC "-//W3C//DTD SVG 1.1//EN" "http://www.w3.org/Graphics/SVG/1.1/DTD/svg11.dtd">
<!-- Creator: CorelDRAW 2020 (64-Bit) -->
<svg xmlns="http://www.w3.org/2000/svg" xml:space="preserve" width="564.621mm" height="634.887mm" version="1.1" style="shape-rendering:geometricPrecision; text-rendering:geometricPrecision; image-rendering:optimizeQuality; fill-rule:evenodd; clip-rule:evenodd"
viewBox="0 0 332293.06 373646.66"
 xmlns:xlink="http://www.w3.org/1999/xlink"
 xmlns:xodm="http://www.corel.com/coreldraw/odm/2003">
 <defs>
  <style type="text/css">
   <![CDATA[
    .str0 {stroke:white;stroke-width:1764.16;stroke-miterlimit:22.9256;stroke-opacity:0.078431}
    .fil6 {fill:none}
    .fil5 {fill:none;fill-rule:nonzero}
    .fil0 {fill:#17406C}
    .fil7 {fill:#FEFEFE;fill-rule:nonzero}
    .fil1 {fill:#17406C;fill-rule:nonzero}
    .fil4 {fill:white;fill-rule:nonzero;fill-opacity:0.078431}
    .fil2 {fill:url(#id1);fill-rule:nonzero}
    .fil3 {fill:url(#id2);fill-rule:nonzero}
   ]]>
  </style>
   <clipPath id="id0">
    <path d="M-0 373646.66l332293.06 0 0 -373646.66 -332293.06 0 0 373646.66z"/>
   </clipPath>
  <linearGradient id="id1" gradientUnits="userSpaceOnUse" x1="165890.29" y1="42101.91" x2="165890.29" y2="331094.06">
   <stop offset="0" style="stop-opacity:0.0588235; stop-color:white"/>
   <stop offset="1" style="stop-opacity:0; stop-color:white"/>
  </linearGradient>
  <linearGradient id="id2" gradientUnits="userSpaceOnUse" xlink:href="#id1" x1="165890.29" y1="82601.92" x2="165890.29" y2="289449.85">
  </linearGradient>
 </defs>
 <g id="Слой_x0020_1">
  <metadata id="CorelCorpID_0Corel-Layer"/>
  <polygon class="fil0" points="-0,373646.66 332293.06,373646.66 332293.06,0 -0,0 "/>
  <g>
  </g>
  <g style="clip-path:url(#id0)">
   <g>
    <rect class="fil1" width="332293.06" height="373646.66"/>
    <circle class="fil2" cx="165901.71" cy="186822.21" r="144496.13"/>
    <circle class="fil3" cx="166258.65" cy="186467.51" r="103311.85"/>
    <polygon class="fil4" points="25785.07,43785.86 54977.17,43785.86 54977.17,14596.05 25785.07,14596.05 "/>
    <polygon class="fil5 str0" points="41264.32,57498.71 68690.03,57498.71 68690.03,30073.06 41264.32,30073.06 "/>
    <path class="fil4" d="M345795.4 279997.62c-4555.71,-633.84 -9193.75,-366.12 -13644.17,791.68 -4452.72,1157.8 -8633.18,3180.5 -12303.34,5953.75 -3670.16,2773.24 -6759.14,6242.07 -9088.52,10207.42 -2329.32,3967.65 -3855.54,8353.98 -4489.32,12909.69 -636.08,4555.71 -366.12,9191.45 791.68,13644.17 1155.51,4452.72 3178.21,8633.18 5953.75,12303.34 2770.95,3670.16 6239.77,6759.14 10207.42,9088.52 3965.36,2329.32 8351.69,3855.54 12909.69,4489.32l4830.25 -34692.8 4832.55 -34695.1z"/>
   </g>
  </g>
  <polygon class="fil6" points="-0,373646.66 332293.06,373646.66 332293.06,0 -0,0 "/>
  <polygon class="fil6" points="-0,373646.66 332293.06,373646.66 332293.06,0 -0,0 "/>
  <path class="fil7" d="M103949.05 212409.37c-1029.33,0 -1935.07,-234.17 -2712.21,-702.52 -779.68,-468.35 -1389.56,-1129.61 -1824.43,-1989.09 -437.45,-859.48 -656.15,-1881.04 -656.15,-3062.15 0,-1206.83 223.87,-2238.69 669.03,-3100.76 447.75,-862.01 1060.17,-1525.93 1832.14,-1986.5 774.56,-463.23 1649.46,-694.81 2624.7,-694.81 617.6,0 1194,90.1 1729.2,272.78 535.26,180.15 1011.26,437.45 1428.17,766.85 419.44,331.93 761.67,728.18 1029.27,1183.64 270.19,458.05 450.34,962.41 540.38,1515.63l-2027.7 0c-90.04,-306.21 -216.16,-578.93 -378.3,-818.28 -159.49,-236.7 -352.53,-442.57 -578.93,-612.42 -226.46,-172.38 -483.77,-301.03 -769.44,-388.54 -288.2,-87.51 -602.12,-131.24 -941.76,-131.24 -609.89,0 -1152.86,151.84 -1628.86,455.46 -478.65,303.68 -851.77,751.37 -1124.55,1345.84 -270.19,591.82 -406.55,1317.47 -406.55,2176.95 0,849.12 136.36,1572.24 406.55,2164.06 272.78,594.41 648.49,1044.75 1127.08,1353.55 481.24,308.74 1037.04,463.17 1670.06,463.17 573.81,0 1073.06,-110.64 1497.62,-331.93 424.56,-221.34 751.37,-537.85 980.42,-949.53 226.41,-411.73 342.23,-895.5 342.23,-1453.89l460.58 74.62 -3069.86 0 0 -1567.12 4539.17 0 0 1340.66c0,964.94 -205.81,1796.12 -614.95,2496.05 -409.2,697.34 -970.12,1235.14 -1685.47,1613.44 -712.82,375.66 -1531.1,566.1 -2457.44,566.1z"/>
  <polygon id="1" class="fil7" points="110680.59,212257.53 110672.88,201025.37 112656.85,201025.37 112664.56,210584.94 117630.88,210584.94 117630.88,212257.53 "/>
  <path id="2" class="fil7" d="M123762.89 212409.37c-980.36,0 -1860.44,-229.05 -2634.94,-687.04 -777.15,-458.05 -1389.56,-1116.78 -1839.9,-1976.26 -450.28,-859.48 -674.15,-1891.34 -674.15,-3098.17 0,-1209.42 223.87,-2246.46 674.15,-3108.47 450.34,-862.07 1062.76,-1520.81 1839.9,-1978.85 774.5,-457.99 1654.58,-687.04 2634.94,-687.04 983.01,0 1863.03,229.05 2637.59,687.04 774.56,458.05 1384.39,1116.78 1832.14,1978.85 447.75,862.01 671.62,1899.05 671.62,3108.47 0,1206.83 -223.87,2238.69 -671.62,3098.17 -447.75,859.48 -1057.58,1518.22 -1832.14,1976.26 -774.56,457.99 -1654.58,687.04 -2637.59,687.04zm0 -1788.41c612.48,0 1155.39,-151.84 1631.45,-455.46 476.06,-303.68 846.59,-751.37 1116.78,-1345.84 267.6,-591.82 401.43,-1317.47 401.43,-2171.77 0,-864.6 -133.83,-1592.84 -401.43,-2184.66 -270.19,-594.47 -640.73,-1042.16 -1116.78,-1345.84 -476.06,-303.62 -1018.97,-455.46 -1631.45,-455.46 -615.01,0 -1157.92,151.84 -1633.98,455.46 -473.47,303.68 -846.59,753.96 -1114.19,1348.37 -270.19,597 -404.02,1322.65 -404.02,2182.13 0,854.3 133.83,1579.95 404.02,2171.77 267.6,594.47 640.73,1042.16 1114.19,1345.84 476.06,303.62 1018.97,455.46 1633.98,455.46z"/>
  <path id="3" class="fil7" d="M130831.6 212257.53l0 -11232.16 4289.58 0c810.57,0 1482.2,128.65 2014.81,383.42 532.67,257.3 931.52,604.71 1196.59,1044.69 267.6,440.04 401.43,936.7 401.43,1489.91 0,455.46 -87.51,846.59 -259.89,1170.87 -175.03,324.22 -409.14,586.7 -705.11,787.39 -298.5,200.69 -625.25,347.41 -988.07,437.45l0 105.52c396.25,20.54 777.09,141.48 1142.5,362.83 362.83,221.29 663.86,532.61 895.5,939.23 234.11,403.96 352.53,887.73 352.53,1451.3 0,581.52 -141.54,1103.9 -419.44,1567.06 -277.9,463.23 -699.93,826.05 -1266.03,1093.65 -566.1,265.01 -1278.92,398.84 -2138.34,398.84l-4516.04 0zm1991.68 -1664.88l2223.27 0c748.78,0 1289.16,-146.66 1615.97,-434.86 329.4,-288.2 494.07,-656.2 494.07,-1103.95 0,-337.11 -82.33,-640.73 -247,-913.51 -167.26,-270.19 -404.02,-486.3 -710.23,-643.26 -306.21,-159.55 -669.03,-236.76 -1091.07,-236.76l-2285 0 0 3332.34zm0 -4773.34l2050.83 0c355.12,0 676.8,-66.92 959.82,-200.75 285.67,-131.24 509.54,-321.63 674.21,-563.51 167.26,-244.47 249.59,-532.67 249.59,-864.6 0,-437.45 -154.37,-797.69 -463.17,-1080.77 -308.8,-285.61 -766.85,-427.15 -1376.68,-427.15l-2094.62 0 0 3136.78z"/>
  <path id="4" class="fil7" d="M140247.05 212257.53l3929.28 -11232.16 2516.65 0 4011.68 11232.16 -2179.54 0 -2012.28 -5872.12c-190.39,-594.41 -391.13,-1266.03 -602.12,-2019.99 -210.99,-753.96 -445.16,-1618.56 -702.46,-2593.8l414.26 0c-249.59,980.36 -478.65,1850.14 -681.92,2611.81 -203.28,761.67 -396.25,1428.17 -576.4,2001.98l-1945.37 5872.12 -2171.77 0zm2277.29 -2797.08l0 -1605.73 5903.02 0 0 1605.73 -5903.02 0z"/>
  <polygon id="5" class="fil7" points="152225.46,212257.53 152217.75,201025.37 154201.72,201025.37 154209.43,210584.94 159175.76,210584.94 159175.76,212257.53 "/>
  <path id="6" class="fil7" d="M168784.24 212429.91c-864.66,0 -1618.62,-133.77 -2259.34,-406.55 -640.73,-270.19 -1139.91,-663.91 -1500.15,-1178.52 -357.71,-517.25 -553.27,-1139.97 -584.17,-1873.33l1960.85 0c36.02,391.13 159.49,717.94 373.12,980.42 213.58,259.89 494.01,455.46 844,586.7 349.94,131.24 733.36,195.57 1150.21,195.57 447.75,0 841.47,-69.5 1183.7,-205.87 342.23,-138.95 609.89,-331.99 802.86,-576.4 192.98,-247.06 290.79,-535.26 290.79,-859.48 0,-298.5 -87.51,-540.38 -257.36,-733.36 -169.85,-190.45 -409.14,-352.53 -712.76,-486.36 -303.68,-131.24 -661.32,-249.59 -1073.06,-349.94l-1273.74 -331.99c-936.64,-241.88 -1664.88,-607.24 -2189.84,-1096.19 -527.49,-488.89 -789.98,-1129.61 -789.98,-1919.65 0,-661.27 180.15,-1242.85 535.26,-1736.91 357.65,-494.07 844,-880.02 1459.01,-1152.8 617.54,-275.31 1317.47,-411.73 2099.74,-411.73 795.16,0 1492.5,138.95 2092.03,414.32 602.18,277.9 1070.47,658.74 1410.16,1142.5 339.64,486.36 517.2,1039.57 532.67,1662.29l-1922.24 0c-56.62,-486.3 -275.31,-864.6 -656.15,-1129.61 -383.42,-267.66 -877.49,-401.43 -1487.32,-401.43 -427.21,0 -792.57,66.92 -1098.77,198.16 -306.27,128.65 -542.97,306.21 -710.23,530.08 -164.67,223.87 -247.06,478.59 -247.06,764.2 0,321.69 97.81,584.17 293.38,784.86 195.57,200.75 442.57,362.83 738.54,483.77 295.91,120.94 591.82,218.75 890.32,293.38l1055.05 270.19c411.67,100.34 813.11,234.11 1206.83,401.37 391.13,164.73 743.66,373.12 1057.58,625.31 313.92,252.18 563.57,558.39 751.37,918.69 185.33,362.83 277.96,787.39 277.96,1273.74 0,658.74 -167.26,1237.73 -501.78,1739.5 -334.58,499.19 -818.34,887.73 -1451.36,1168.22 -632.96,277.9 -1397.22,416.85 -2290.12,416.85z"/>
  <path id="7" class="fil7" d="M179684.41 212409.37c-980.36,0 -1860.44,-229.05 -2634.94,-687.04 -777.15,-458.05 -1389.56,-1116.78 -1839.9,-1976.26 -450.28,-859.48 -674.15,-1891.34 -674.15,-3098.17 0,-1209.42 223.87,-2246.46 674.15,-3108.47 450.34,-862.07 1062.76,-1520.81 1839.9,-1978.85 774.5,-457.99 1654.58,-687.04 2634.94,-687.04 983.01,0 1863.03,229.05 2637.59,687.04 774.56,458.05 1384.39,1116.78 1832.14,1978.85 447.75,862.01 671.62,1899.05 671.62,3108.47 0,1206.83 -223.87,2238.69 -671.62,3098.17 -447.75,859.48 -1057.58,1518.22 -1832.14,1976.26 -774.56,457.99 -1654.58,687.04 -2637.59,687.04zm0 -1788.41c612.48,0 1155.39,-151.84 1631.45,-455.46 476.06,-303.68 846.59,-751.37 1116.78,-1345.84 267.6,-591.82 401.43,-1317.47 401.43,-2171.77 0,-864.6 -133.83,-1592.84 -401.43,-2184.66 -270.19,-594.47 -640.73,-1042.16 -1116.78,-1345.84 -476.06,-303.62 -1018.97,-455.46 -1631.45,-455.46 -615.01,0 -1157.92,151.84 -1633.98,455.46 -473.47,303.68 -846.59,753.96 -1114.19,1348.37 -270.19,597 -404.02,1322.65 -404.02,2182.13 0,854.3 133.83,1579.95 404.02,2171.77 267.6,594.47 640.73,1042.16 1114.19,1345.84 476.06,303.62 1018.97,455.46 1633.98,455.46z"/>
  <polygon id="8" class="fil7" points="186760.83,212257.53 186753.12,201025.37 193924.7,201025.37 193929.88,202697.95 188737.1,202697.95 188744.81,206092.03 193425.52,206097.21 193425.52,207749.2 188737.1,207749.2 188744.81,212257.53 "/>
  <polygon id="9" class="fil7" points="195332.28,202697.95 195332.28,201025.37 204251.13,201025.37 204251.13,202697.95 200782.36,202697.95 200790.13,212257.53 198808.69,212257.53 198800.98,202697.95 "/>
  <polygon id="10" class="fil7" points="206029.23,212257.53 206021.52,201025.37 208005.5,201025.37 208013.21,210584.94 212979.53,210584.94 212979.53,212257.53 "/>
  <polygon id="11" class="fil7" points="216736.49,201025.37 216744.2,212257.53 214760.23,212257.53 214752.52,201025.37 "/>
  <path id="12" class="fil7" d="M219018.97 212257.53l0 -11232.16 2246.4 0 3921.63 6227.23c159.55,254.71 331.93,545.5 512.07,867.19 180.15,321.63 367.95,681.86 560.98,1080.71 195.57,398.9 388.54,841.47 584.11,1322.65l-223.87 0c-41.2,-421.97 -74.62,-854.3 -100.34,-1296.87 -23.19,-442.63 -43.79,-862.07 -56.62,-1258.32 -10.3,-396.25 -18.01,-733.36 -18.01,-1011.26l0 -5931.32 2012.28 0 0 11232.16 -2254.17 0 -3527.91 -5601.93c-221.29,-355.12 -429.74,-707.64 -625.31,-1055.05 -195.57,-347.35 -409.14,-738.48 -635.61,-1175.93 -228.99,-437.45 -504.31,-965 -825.99,-1582.54l285.61 0c30.9,548.09 59.21,1065.29 82.39,1556.76 25.72,488.95 46.32,926.4 61.74,1312.35 15.42,383.42 23.13,694.81 23.13,928.99l0 5617.35 -2022.52 0z"/>
  <polygon id="13" class="fil7" points="230742.61,212257.53 230734.9,201025.37 238012,201025.37 238012,202697.95 232718.87,202697.95 232726.58,205760.1 237618.28,205760.1 237625.99,207409.56 232718.87,207409.56 232726.58,210584.94 238040.31,210584.94 238048.02,212257.53 "/>
  <path id="14" class="fil7" d="M127321.7 227216.4c-910.92,0 -1706.01,-169.79 -2390.53,-514.61 -681.92,-344.82 -1212.01,-823.46 -1590.25,-1433.29 -375.71,-609.89 -566.1,-1314.94 -566.1,-2115.22l0 -7333.72 1991.68 0 0 7169.05c0,476 102.93,900.62 311.33,1266.03 208.46,367.95 506.95,656.15 890.38,867.13 385.95,211.04 836.29,316.51 1353.49,316.51 527.55,0 980.42,-105.46 1361.26,-316.51 378.24,-210.99 674.15,-499.19 882.61,-867.13 208.46,-365.41 311.39,-790.04 311.39,-1266.03l0 -7169.05 1991.68 0 0 7333.72c0,800.28 -190.45,1505.33 -566.16,2115.22 -378.24,609.83 -905.74,1088.48 -1587.66,1433.29 -679.33,344.82 -1479.61,514.61 -2393.12,514.61z"/>
  <path id="15" class="fil7" d="M134143.34 227051.73l0 -11232.16 2246.4 0 3921.63 6227.23c159.55,254.71 331.93,545.5 512.07,867.19 180.15,321.63 367.95,681.86 560.98,1080.71 195.57,398.9 388.54,841.47 584.11,1322.65l-223.87 0c-41.2,-421.97 -74.62,-854.3 -100.34,-1296.87 -23.19,-442.63 -43.79,-862.07 -56.62,-1258.32 -10.3,-396.25 -18.01,-733.36 -18.01,-1011.26l0 -5931.32 2012.28 0 0 11232.16 -2254.17 0 -3527.91 -5601.93c-221.29,-355.12 -429.74,-707.64 -625.31,-1055.05 -195.57,-347.35 -409.14,-738.48 -635.61,-1175.93 -228.99,-437.45 -504.31,-965 -825.99,-1582.54l285.61 0c30.9,548.09 59.21,1065.29 82.39,1556.76 25.72,488.95 46.32,926.4 61.74,1312.35 15.42,383.42 23.13,694.81 23.13,928.99l0 5617.35 -2022.52 0z"/>
  <polygon id="16" class="fil7" points="147843.25,215819.57 147850.96,227051.73 145866.98,227051.73 145859.27,215819.57 "/>
  <path id="17" class="fil7" d="M153367.96 227051.73l-4003.91 -11232.16 2179.48 0 2004.57 5872.12c187.86,573.81 386.01,1237.73 599.59,1994.27 213.58,756.49 450.28,1613.38 705.05,2573.2l-414.32 0c247.06,-977.83 473.47,-1842.43 681.92,-2588.68 208.46,-746.19 404.02,-1404.98 584.11,-1978.8l1945.37 -5872.12 2171.83 0 -3934.46 11232.16 -2519.24 0z"/>
  <polygon id="18" class="fil7" points="161342.47,227051.73 161334.76,215819.57 168611.86,215819.57 168611.86,217492.16 163318.73,217492.16 163326.44,220554.31 168218.14,220554.31 168225.85,222203.77 163318.73,222203.77 163326.44,225379.15 168640.17,225379.15 168647.88,227051.73 "/>
  <path id="19" class="fil7" d="M170675.58 227051.73l0 -11232.16 4191.76 0c859.48,0 1582.54,149.25 2169.24,452.87 584.17,301.09 1026.74,720.53 1325.24,1258.32 298.5,537.79 450.28,1163.1 450.28,1875.86 0,715.41 -151.78,1335.54 -452.87,1863.03 -301.03,527.55 -748.78,934.11 -1338.07,1222.31 -591.82,285.61 -1320.06,429.74 -2189.84,429.74l-2992.65 0 0 -1652.05 2735.34 0c512.07,0 931.52,-72.04 1255.73,-218.7 324.22,-146.66 563.51,-357.71 720.53,-633.02 154.37,-277.9 231.58,-612.42 231.58,-1011.32 0,-406.55 -77.21,-751.37 -231.58,-1036.98 -157.02,-283.08 -396.31,-501.78 -720.53,-653.62 -324.22,-154.37 -746.25,-231.58 -1263.44,-231.58l-1899.05 0 0 9567.29 -1991.68 0zm6324.99 0l-2719.92 -5089.85 2171.83 0 2781.66 5089.85 -2233.57 0z"/>
  <path id="20" class="fil7" d="M184668.86 227224.11c-864.66,0 -1618.62,-133.77 -2259.34,-406.55 -640.73,-270.19 -1139.91,-663.91 -1500.15,-1178.52 -357.71,-517.25 -553.27,-1139.97 -584.17,-1873.33l1960.85 0c36.02,391.13 159.49,717.94 373.12,980.42 213.58,259.89 494.01,455.46 844,586.7 349.94,131.24 733.36,195.57 1150.21,195.57 447.75,0 841.47,-69.5 1183.7,-205.87 342.23,-138.95 609.89,-331.99 802.86,-576.4 192.98,-247.06 290.79,-535.26 290.79,-859.48 0,-298.5 -87.51,-540.38 -257.36,-733.36 -169.85,-190.45 -409.14,-352.53 -712.76,-486.36 -303.68,-131.24 -661.32,-249.59 -1073.06,-349.94l-1273.74 -331.99c-936.64,-241.88 -1664.88,-607.24 -2189.84,-1096.19 -527.49,-488.89 -789.98,-1129.61 -789.98,-1919.65 0,-661.27 180.15,-1242.85 535.26,-1736.91 357.65,-494.07 844,-880.02 1459.01,-1152.8 617.54,-275.31 1317.47,-411.73 2099.74,-411.73 795.16,0 1492.5,138.95 2092.03,414.32 602.18,277.9 1070.47,658.74 1410.16,1142.5 339.64,486.36 517.2,1039.57 532.67,1662.29l-1922.24 0c-56.62,-486.3 -275.31,-864.6 -656.15,-1129.61 -383.42,-267.66 -877.49,-401.43 -1487.32,-401.43 -427.21,0 -792.57,66.92 -1098.77,198.16 -306.27,128.65 -542.97,306.21 -710.23,530.08 -164.67,223.87 -247.06,478.59 -247.06,764.2 0,321.69 97.81,584.17 293.38,784.86 195.57,200.75 442.57,362.83 738.54,483.77 295.91,120.94 591.82,218.75 890.32,293.38l1055.05 270.19c411.67,100.34 813.11,234.11 1206.83,401.37 391.13,164.73 743.66,373.12 1057.58,625.31 313.92,252.18 563.57,558.39 751.37,918.69 185.33,362.83 277.96,787.39 277.96,1273.74 0,658.74 -167.26,1237.73 -501.78,1739.5 -334.58,499.19 -818.34,887.73 -1451.36,1168.22 -632.96,277.9 -1397.22,416.85 -2290.12,416.85z"/>
  <polygon id="21" class="fil7" points="192756.54,215819.57 192764.25,227051.73 190780.28,227051.73 190772.57,215819.57 "/>
  <polygon id="22" class="fil7" points="194534.65,217492.16 194534.65,215819.57 203453.5,215819.57 203453.5,217492.16 199984.74,217492.16 199992.51,227051.73 198011.06,227051.73 198003.35,217492.16 "/>
  <path id="23" class="fil7" d="M208805.83 227051.73l0 -4356.49 -4148.04 -6875.67 2323.61 0 2012.28 3543.33c216.11,370.53 406.55,733.36 573.81,1088.48 164.67,355.12 337.11,787.45 512.07,1299.52l-527.49 0c174.97,-517.25 344.82,-954.7 509.49,-1309.82 162.14,-357.65 347.41,-717.94 553.27,-1078.18l1976.21 -3543.33 2305.6 0 -4109.43 6875.67 0 4356.49 -1981.38 0z"/>
  <g>
   <polygon class="fil7" points="179965.49,187624.96 189053.49,187624.96 189053.49,146387.95 179965.49,146387.95 "/>
   <polygon class="fil7" points="190684.17,187624.96 199771.75,187624.96 199771.75,146387.95 190684.17,146387.95 "/>
   <polygon class="fil7" points="147751.2,155477.12 156838.84,155477.12 156838.84,146387.95 147751.2,146387.95 "/>
   <polygon class="fil7" points="137032.53,187624.96 146120.58,187624.96 146120.58,146387.95 137032.53,146387.95 "/>
   <polygon class="fil7" points="147751.2,187634.32 156838.84,187634.32 156838.84,161343.64 147751.2,161343.64 "/>
   <polygon class="fil7" points="158535.15,166233.69 167622.79,166233.69 167622.79,146383.24 158535.15,146383.24 "/>
   <polygon class="fil7" points="158535.15,187629.61 167622.79,187629.61 167622.79,178540.44 158535.15,178540.44 "/>
   <polygon class="fil7" points="169246.41,155472.41 178334.05,155472.41 178334.05,146383.24 169246.41,146383.24 "/>
   <polygon class="fil7" points="169246.41,187629.61 178334.05,187629.61 178334.05,167779.16 169246.41,167779.16 "/>
  </g>
 </g>
</svg>
